<svg xmlns="http://www.w3.org/2000/svg" width="200" height="200" viewBox="0 0 200 200">
  <g id="Group_1556" data-name="Group 1556" transform="translate(0)">
    <g id="Group_1494" data-name="Group 1494" transform="translate(0 0)">
      <rect id="Rectangle_4" data-name="Rectangle 4" width="200" height="200" rx="5" fill="#f7df1e"/>
    </g>
    <g id="javascript" transform="translate(28.023 28.023)">
      <path id="Path_3057" data-name="Path 3057" d="M0,0H143.954V143.954H0Z" transform="translate(0)" fill="#f7df1e"/>
      <path id="Path_3058" data-name="Path 3058" d="M67.312,176.581l12.107-7.327c2.336,4.141,4.461,7.645,9.558,7.645,4.885,0,7.966-1.911,7.966-9.344V117H111.81v50.762c0,15.4-9.027,22.408-22.2,22.408-11.894,0-18.8-6.16-22.3-13.594m52.574-1.592,12.106-7.009c3.187,5.2,7.329,9.027,14.656,9.027,6.161,0,10.089-3.08,10.089-7.328,0-5.1-4.036-6.9-10.832-9.876l-3.716-1.595c-10.727-4.565-17.842-10.3-17.842-22.407,0-11.151,8.5-19.648,21.771-19.648,9.452,0,16.249,3.293,21.133,11.895l-11.577,7.435c-2.549-4.566-5.309-6.372-9.558-6.372-4.354,0-7.116,2.761-7.116,6.372,0,4.46,2.761,6.267,9.133,9.028l3.717,1.593c12.638,5.417,19.753,10.939,19.753,23.363,0,13.382-10.514,20.709-24.638,20.709-13.806,0-22.727-6.584-27.081-15.187" transform="translate(-33.151 -51.808)"/>
    </g>
  </g>
</svg>
